# xmcd
# Track frame offsets:
# 150
# 12576
# 26463
# 39625
# 56437
# 73122
# 84966
# 98461
# 111468
# 123004
# 132132
# 144885
# 156925
# 171878
# 183179
# 197438
# 207995
# 225505
#
# Disc length: 3131 seconds
# Revision: 0
# Processed by: cddbd v1.5.2PL0 Copyright (c) Steve Scherf et al.
# Submitted via: VisiTrax 2.11.2.271 - For more info visit www.synapsa.com
#
DISCID=e40c3912
DTITLE=Various Artist - 18 Greatest Country Love Songs
DYEAR=2006
DGENRE=
TTITLE0=Johnny Cash - I Walk The Line
TTITLE1=George Jones and Tammy Wynette - Golden Ring
TTITLE2=Hank Williams - Hey Good Lookin'
TTITLE3=Merle Haggard - Today I Started Loving You Again
TTITLE4=Ray Price - You're The Best Thing That Ever Happened To Me
TTITLE5=Conway Twitty - I'm Not Through Loving You Yet
TTITLE6=Johnny Paycheck - Someone To Give My Love To
TTITLE7=David Houston and Tammy Wynette - My Elusive Dreams
TTITLE8=Hank Williams - Baby We're Really In Love
TTITLE9=Webb Pierce - Love, Love, Love
TTITLE10=Charlie Rich - The Most Beautiful Girl
TTITLE11=Johnny Cash - You're The Nearest Thing To Heaven
TTITLE12=Mickey Gilley - Fool For Your Love
TTITLE13=Patsy Cline - That Wonderful Someone
TTITLE14=Willie Nelson - That's The Way Love Goes
TTITLE15=George Jones - Treasure Of Love
TTITLE16=Doug Stone - Too Busy Being In Love
TTITLE17=Jerry Lee Lewis - One Minute Past Eternity
EXTD=
EXTT0=
EXTT1=
EXTT2=
EXTT3=
EXTT4=
EXTT5=
EXTT6=
EXTT7=
EXTT8=
EXTT9=
EXTT10=
EXTT11=
EXTT12=
EXTT13=
EXTT14=
EXTT15=
EXTT16=
EXTT17=
PLAYORDER=
